# xmcd CD database file
#
# Track frame offsets:
#	150
#	19008
#	41380
#	55720
#	73010
#	88850
#	111519
#	138561
#	158773
#	171585
#	197699
#	214239
#	237260
#
# Disc length: 3413 seconds
#
# Revision: 1
# Processed by: cddbd v1.5.2PL0 Copyright (c) Steve Scherf et al.
# Submitted via: CDex 1.51
#
DISCID=bb0d530d
DTITLE=Buddy Miller's Majestic Silver Strings - Buddy Miller's Majestic Silver Strings
DYEAR=2011
DGENRE=Country
TTITLE0=Cattle Call
TTITLE1=No Good Lover
TTITLE2=I Want To Be With You Always
TTITLE3=Barres de la Prison
TTITLE4=Meds
TTITLE5=Dang Me
TTITLE6=Bury Me Not On The Lone Prairie
TTITLE7=That's The Way Love Goes
TTITLE8=Freight Train
TTITLE9=Why I'm Walkin'
TTITLE10=Why Baby Why
TTITLE11=Return To Me
TTITLE12=God's Winged Horse
EXTD=YEAR: 2011
EXTT0=
EXTT1=
EXTT2=
EXTT3=
EXTT4=
EXTT5=
EXTT6=
EXTT7=
EXTT8=
EXTT9=
EXTT10=
EXTT11=
EXTT12=
PLAYORDER=
